<svg width="1491" height="360" viewBox="0 0 1491 360" fill="none" xmlns="http://www.w3.org/2000/svg">
<g clip-path="url(#clip0_2_3)">
<path d="M139.07 248.27L0 12.43H133.02L198.84 132.4H203L269.31 12.33H399.55L260.48 248.27V347.31H138.94L139.07 248.27Z" fill="#FAFAFA" fill-opacity="0.980392"/>
<path d="M767.56 180.83C767.56 68.88 844.96 2.86 959.46 2.86C1015.56 2.86 1054.93 16.72 1085.99 34.91V147.81H1085.06C1047.07 121.4 1014.15 106.18 973.37 106.18C924.24 106.18 889.03 132.59 889.03 179.86C889.03 227.13 925.17 253.05 972.89 253.05C1015.08 253.05 1048.92 238.23 1085.06 210.96H1085.99V325.28C1060.4 340.6 1015.63 356.84 958.54 356.84C840.3 356.87 767.57 292.76 767.57 180.82L767.56 180.83Z" fill="#FAFAFA" fill-opacity="0.980392"/>
<path d="M1106.35 179.88C1106.35 67.94 1180.49 0 1298.26 0C1416.03 0 1490.16 67.94 1490.16 179.88C1490.16 291.82 1416.02 359.73 1298.26 359.73C1180.5 359.73 1106.35 291.82 1106.35 179.88ZM1371.82 179.88C1371.82 130.59 1344.02 102.37 1298.26 102.37C1252.5 102.37 1225.05 130.6 1225.05 179.88C1225.05 229.16 1252.39 257.36 1298.26 257.36C1344.13 257.36 1371.92 229.13 1371.92 179.88H1371.83H1371.82Z" fill="#FAFAFA" fill-opacity="0.980392"/>
<path d="M364.35 179.88C364.35 67.94 438.49 0 556.25 0C674.01 0 748.16 67.94 748.16 179.88C748.16 291.82 673.98 359.73 556.25 359.73C438.52 359.73 364.35 291.82 364.35 179.88ZM629.81 179.88C629.81 130.59 601.98 102.37 556.25 102.37C510.52 102.37 483.01 130.6 483.01 179.88C483.01 229.16 510.36 257.36 556.25 257.36C602.14 257.36 629.91 229.13 629.91 179.88H629.81Z" fill="#FAFAFA" fill-opacity="0.980392"/>
</g>
<defs>
<clipPath id="clip0_2_3">
<rect width="1490.16" height="359.74" fill="white"/>
</clipPath>
</defs>
</svg>
